<svg width="225" height="203" viewBox="0 0 225 203" fill="none" xmlns="http://www.w3.org/2000/svg">
<path d="M96.9005 201.897C85.9125 201.897 83.6666 194.893 83.6666 185.022L83.7808 156.639H79.4541V156.207L90.8736 146.945V155.852H99.8696V156.626H90.8736L90.6833 185.009C90.6833 192.622 90.5945 201.022 100.466 201.022C101.418 201.022 102.458 200.933 103.41 200.844V201.364C101.227 201.643 99.0576 201.897 96.9005 201.897Z" fill="white"/>
<path d="M143.354 14.4391C133.901 5.12601 121.289 0 107.839 0H106.976V11.6985C96.8128 11.9269 87.2711 16.0759 80.1149 23.3969C72.8953 30.7688 68.9238 40.5132 68.9238 50.8287L68.9111 93.1056L106.659 128.188L106.71 128.239H108.702V13.4367C118.408 13.6524 127.519 17.6238 134.37 24.615C141.273 31.6569 145.066 40.97 145.066 50.8414V93.3086L156.004 103.497L156.055 103.548H158.059V49.7629C158.072 36.3388 152.832 23.7903 143.354 14.4391ZM106.976 13.4241V126.12L70.6367 92.3443L70.6494 50.8287C70.6494 40.97 74.4432 31.6696 81.333 24.615C88.172 17.6238 97.2695 13.6524 106.976 13.4241ZM135.588 23.3843C128.419 16.0632 118.878 11.9142 108.702 11.6985V1.72559C121.365 1.94129 133.228 6.88966 142.135 15.6699C151.296 24.7038 156.334 36.8083 156.334 49.7629V101.429L146.792 92.5346V50.816C146.792 40.5006 142.821 30.7561 135.588 23.3843Z" fill="white"/>
<path d="M178.347 155.09C172.549 155.09 167.448 159.848 162.259 166.509V155.432L150.89 164.999V165.57C154.76 165.672 155.166 166.738 155.166 172.308V175.429C147.642 187.711 140.625 201.046 127.823 201.046C119.867 201.046 112.685 193.865 112.685 178.208C112.685 174.655 113.206 171.458 113.98 168.78H144.267C142.186 159.607 134.484 155.026 126.528 155.026C116.149 155.026 105.237 162.728 105.237 178.474C105.237 196.212 116.568 202.011 127.823 202.011C140.803 202.011 147.895 189.373 155.166 177.345V189.196C155.166 189.703 155.153 190.185 155.128 190.655V201.046H162.208V190.845C162.195 190.667 162.182 190.502 162.17 190.312L162.259 167.638C166.839 162.106 170.303 160.114 173.336 160.114C174.262 160.114 175.163 160.305 176.038 160.635L181.799 155.686C180.657 155.242 179.159 155.09 178.347 155.09ZM127.987 156.041C139.762 156.041 141.399 167.981 134.915 167.981H114.233C116.822 160.102 122.455 156.041 127.987 156.041Z" fill="white"/>
<path d="M212.784 155.356C203.217 154.163 197.951 160.329 192.749 166.496V155.457L181.405 165.011V165.595C185.96 165.722 185.656 167.955 185.656 172.332V189.296C185.656 189.703 185.643 190.096 185.63 190.502V201.16H192.774V190.718C192.761 190.248 192.749 189.779 192.749 189.296V167.663C196.961 162.74 201.998 158.832 208.66 158.832C215.334 158.832 217.237 164.808 217.313 170.404L217.326 196.072L222.135 200.525L223.784 202.035H224.393V177.915L224.431 169.972C224.406 162.423 220.676 156.333 212.784 155.356Z" fill="white"/>
<path d="M20.0729 154.824C14.9722 154.824 8.31085 156.296 4.6693 160.191V167.854H5.36716C6.78825 161.751 10.5694 155.687 17.4845 155.687C23.3719 155.687 28.4726 159.15 28.4726 165.469C28.4726 177.497 0 176.457 0 191.34C0 198.699 5.79856 201.897 12.5488 201.897C18.3473 201.897 24.6661 200.4 28.8152 196.238L34.9563 201.859H35.5654V165.558C35.5527 157.425 26.7343 154.824 20.0729 154.824ZM28.4599 195.73C25.3386 198.763 21.0246 200.006 16.609 200.006C10.5567 200.006 7.18159 195.933 7.18159 190.059C7.18159 177.777 25.4401 176.99 28.4726 168.172V195.73H28.4599Z" fill="white"/>
<path d="M49.0409 162.487C49.0409 157.843 53.1899 155.508 57.3517 155.508C64.3303 155.508 67.8957 161.637 69.2153 167.841H69.8116V158.262C66.1828 156.028 61.8561 154.899 57.5293 154.899C51.2106 154.899 43.4199 157.399 43.4199 165.062C43.4199 178.144 67.2994 177.205 67.2994 190.464C67.2994 197.354 61.9068 200.564 55.3596 200.881C51.5278 201.059 48.0892 199.32 47.2518 198.927V199.853C50.5381 201.338 54.2684 201.985 57.6943 201.985C66.1701 201.985 74.6586 197.772 74.6586 188.294C74.6586 173.855 49.0409 172.739 49.0409 162.487Z" fill="white"/>
</svg>
